<?xml version="1.0" encoding="utf-8"?>
<!-- Generator: Adobe Illustrator 23.0.1, SVG Export Plug-In . SVG Version: 6.00 Build 0)  -->
<svg version="1.1" id="Layer_1" xmlns="http://www.w3.org/2000/svg" xmlns:xlink="http://www.w3.org/1999/xlink" x="0px" y="0px"
	 viewBox="0 0 512 512" style="enable-background:new 0 0 512 512;" xml:space="preserve">
<style type="text/css">
	.st0{fill-rule:evenodd;clip-rule:evenodd;fill:#737372;}
	.st1{fill-rule:evenodd;clip-rule:evenodd;fill:#1A91CF;}
	.st2{fill-rule:evenodd;clip-rule:evenodd;fill:#EE7F22;}
	.st3{fill-rule:evenodd;clip-rule:evenodd;fill:#5C5C5C;}
	.st4{display:none;}
	.st5{display:inline;fill-rule:evenodd;clip-rule:evenodd;fill:#737372;}
	.st6{display:inline;fill-rule:evenodd;clip-rule:evenodd;fill:#1A91CF;}
	.st7{display:inline;fill-rule:evenodd;clip-rule:evenodd;fill:#EE7F22;}
	.st8{display:inline;}
	.st9{fill-rule:evenodd;clip-rule:evenodd;fill:#FFFFFF;}
</style>
<g>
	<path class="st0" d="M480.3,86.6c-50,18.6-98.6,37.1-150.9,56.7c-24.6-5.6-53.9-4.5-87.3,3.3l0,0c91.8-33.9,168.4-63.3,250.7-93.8"
		/>
	<path class="st1" d="M254.6,193.6c-15.5-6-38.8-3.3-48.8,1.5c-14.8,7.2-19.8,14.5-28.2,32.5c3.4,5.1,6.7,10.1,9.3,15.3
		c13.3,27.6,8.6,36.9,11.6,50C204.3,259.7,222.5,226.6,254.6,193.6L254.6,193.6z"/>
	<path class="st2" d="M61.8,400.3c6.6-2.4,12.1-4.6,18-6.7c-1.8,4.8-3.8,10.9-5.5,15.9C74.1,401.6,69.4,398.5,61.8,400.3z"/>
	<path class="st2" d="M206.6,400.3c6.6-2.4,12.1-4.6,18-6.7c-1.8,4.8-3.8,10.9-5.5,15.9C218.9,401.6,214.2,398.5,206.6,400.3z"/>
	<path class="st2" d="M383.4,400.3c6.6-2.4,12.1-4.6,18-6.7c-1.8,4.8-3.8,10.9-5.5,15.9C395.7,401.6,391,398.5,383.4,400.3z"/>
	<g id="_1722783697008">
		<path class="st3" d="M294.4,422.3c-0.5,1.8-1.5,3.3-3,4.4s-3.4,1.7-5.7,1.7c-2.9,0-5.1-0.8-6.8-2.5c-1.7-1.6-2.5-3.9-2.5-6.8v-7.4
			c0-2.9,0.8-5.2,2.5-6.8c1.7-1.6,3.9-2.5,6.8-2.5c2.3,0,4.2,0.5,5.8,1.6c1.5,1.1,2.5,2.5,3,4.4l-3.9,1.1c-0.5-2.2-2.2-3.4-4.9-3.4
			c-1.6,0-2.9,0.5-3.8,1.5s-1.3,2.5-1.3,4.5v6.3c0,2,0.4,3.5,1.3,4.5s2.1,1.5,3.8,1.5c2.7,0,4.3-1.1,4.9-3.4L294.4,422.3
			L294.4,422.3z M303,395.1v10.1c0.9-0.9,1.8-1.5,2.9-2.1c1.1-0.5,2.2-0.8,3.3-0.8c2.7,0,4.6,0.7,5.8,2.1c1.2,1.4,1.8,3.5,1.8,6.3
			v17h-4.1v-16.4c0-1.9-0.3-3.2-1-4.1c-0.7-0.8-1.8-1.3-3.4-1.3c-1,0-2,0.3-2.9,0.9c-1,0.6-1.8,1.3-2.5,2.2v18.7h-4.1v-32.2
			L303,395.1z M327.3,398.2c0,0.9-0.2,1.5-0.7,2c-0.5,0.4-1.1,0.6-1.9,0.6c-1.7,0-2.5-0.9-2.5-2.6c0-1.8,0.8-2.7,2.5-2.7
			c0.8,0,1.4,0.2,1.9,0.7C327,396.5,327.3,397.2,327.3,398.2z M326.8,427.9h-4.1v-21.5H320v-3.5h6.8V427.9z M332.6,411.6
			c0-2.9,0.8-5.2,2.5-6.8c1.7-1.6,3.9-2.5,6.8-2.5s5.1,0.8,6.8,2.5c1.7,1.6,2.5,3.9,2.5,6.8v5.1h-14.3v2c0,2,0.4,3.4,1.3,4.4
			s2.2,1.5,3.8,1.5c1.4,0,2.5-0.3,3.3-0.9s1.3-1.4,1.6-2.5l3.8,1c-0.5,1.8-1.5,3.3-3,4.4s-3.4,1.7-5.7,1.7c-2.9,0-5.1-0.8-6.8-2.5
			c-1.7-1.6-2.5-3.9-2.5-6.8L332.6,411.6L332.6,411.6z M346.9,412c0-2-0.4-3.5-1.3-4.5s-2.1-1.5-3.8-1.5s-2.9,0.5-3.8,1.5
			s-1.3,2.5-1.3,4.5v1.4h10.2L346.9,412L346.9,412z M357.5,402.4l6,20.5l5.8-20.1h4.5l-8.3,25h-4.1l-8.3-24.9L357.5,402.4
			L357.5,402.4z M375.9,411.6c0-2.9,0.8-5.2,2.5-6.8c1.7-1.6,3.9-2.5,6.8-2.5s5.1,0.8,6.8,2.5c1.7,1.6,2.5,3.9,2.5,6.8v5.1H380v2
			c0,2,0.4,3.4,1.3,4.4s2.2,1.5,3.8,1.5c1.4,0,2.5-0.3,3.3-0.9s1.3-1.4,1.6-2.5l3.8,1c-0.5,1.8-1.5,3.3-3,4.4s-3.4,1.7-5.7,1.7
			c-2.9,0-5.1-0.8-6.8-2.5c-1.7-1.6-2.5-3.9-2.5-6.8L375.9,411.6L375.9,411.6z M390.2,412c0-2-0.4-3.5-1.3-4.5s-2.1-1.5-3.8-1.5
			c-1.7,0-2.9,0.5-3.8,1.5S380,410,380,412v1.4h10.2L390.2,412L390.2,412z"/>
		<path class="st1" d="M270.8,420c0,1.6,0.1,2.9,0.2,3.9c0.2,1,0.5,2,1,2.9l-3.5,1.4c-0.5-0.8-0.9-1.7-1.2-2.6
			c-0.8,0.8-1.8,1.4-3,1.9s-2.4,0.7-3.7,0.7c-2.6,0-4.5-0.6-6-1.8c-1.4-1.2-2.1-3-2.1-5.4c0-2.6,0.7-4.4,2.2-5.4
			c1.5-1.1,3.6-1.6,6.3-1.6h5.7v-2.9c0-1.8-0.4-3.2-1.1-4c-0.8-0.8-2-1.2-3.6-1.2c-1.3,0-2.4,0.3-3.3,0.9c-0.8,0.6-1.4,1.4-1.6,2.4
			l-3.9-1.1c0.4-1.7,1.4-3.1,2.9-4.2s3.5-1.7,5.8-1.7c2.9,0,5.1,0.7,6.6,2.1s2.3,3.4,2.2,6.1L270.8,420L270.8,420z M256.7,421.1
			c0,1.3,0.4,2.3,1.2,2.9c0.8,0.6,1.8,0.9,3.2,0.9c1.2,0,2.2-0.3,3.2-0.8s1.8-1.2,2.4-2.1v-4.7h-5.5c-1.5,0-2.6,0.3-3.3,0.9
			C257.1,418.7,256.7,419.7,256.7,421.1z"/>
	</g>
	<path class="st1" d="M256.8,210.4c-2.5,4.4-42.6,33.9-30.3,89.6c1.3,5.9,2.9,10.7,5.1,15.9c1.1,2.5,2,4.5,3.3,6.8
		c1.9,3.6,3.1,4.5,3.4,7.1c2.6,1.6,3.3,3.8,5.1,6l10.4,11.2c16.5,17.3,48.1,26.3,74.3,22.3c18.7-2.8,24.2-8.7,31.9-10.8
		c-1.1-3.5-3.5-6.7-5.2-10.3c-5.5-12.4-3.5-26.1-3.7-39.9l-7.9,7.2c-20.5,17.2-54.1,10.6-67-13.3c-17-31.5,5.8-64.3,35.5-66.8
		c18.8-1.6,32.1,8.2,39.4,17.5c20.9,26.7-1.6,69.2,17.2,96.6c6.8,9.9,18.9,19.7,36.2,20.4c1-16.6,0.2-66.6,0.1-86.8
		c-0.1-68.2-63.7-107.6-119.3-88.2C268.5,201,261.4,208.7,256.8,210.4L256.8,210.4z"/>
	<path class="st1" d="M40.3,210.4C37.8,214.8-2.3,244.3,10,300c1.3,5.9,2.9,10.7,5.1,15.9c1.1,2.5,2,4.5,3.3,6.8
		c1.9,3.6,3.1,4.5,3.4,7.1c2.6,1.6,3.3,3.8,5.1,6L37.3,347c16.5,17.3,48.1,26.3,74.3,22.3c18.7-2.8,24.2-8.7,31.9-10.8
		c-1.1-3.5-3.5-6.7-5.2-10.3c-5.5-12.4-3.5-26.1-3.7-39.9l-7.9,7.2c-20.5,17.2-54.1,10.6-67-13.3c-17-31.5,5.8-64.3,35.5-66.8
		c18.8-1.6,32.1,8.2,39.4,17.5c20.9,26.7-1.6,69.2,17.2,96.6c6.8,9.9,18.9,19.7,36.2,20.4c1-16.6,0.2-66.6,0.1-86.8
		c-0.1-68.2-63.7-107.6-119.3-88.2C52,201,44.9,208.7,40.3,210.4L40.3,210.4z"/>
	<path class="st2" d="M508.2,76.2C483,143,455.6,227.1,431.6,297c-3.2-108.8-67.8-151.7-174.1-127
		C349.3,136.1,425.8,106.7,508.2,76.2"/>
	<g>
		<path class="st1" d="M25.9,419.9c0,1.6,0.1,2.9,0.2,3.9c0.2,1,0.5,2,1,2.9l-3.5,1.4c-0.5-0.8-0.9-1.7-1.2-2.6
			c-0.8,0.8-1.8,1.4-3,1.9s-2.4,0.7-3.7,0.7c-2.6,0-4.5-0.6-6-1.8c-1.4-1.2-2.1-3-2.1-5.4c0-2.6,0.7-4.4,2.2-5.4
			c1.5-1.1,3.6-1.6,6.3-1.6h5.7V411c0-1.8-0.4-3.2-1.1-4c-0.8-0.8-2-1.2-3.6-1.2c-1.3,0-2.4,0.3-3.3,0.9c-0.8,0.6-1.4,1.4-1.6,2.4
			L8.3,408c0.4-1.7,1.4-3.1,2.9-4.2s3.5-1.7,5.8-1.7c2.9,0,5.1,0.7,6.6,2.1s2.3,3.4,2.2,6.1L25.9,419.9L25.9,419.9z M11.9,420.9
			c0,1.3,0.4,2.3,1.2,2.9s1.8,0.9,3.2,0.9c1.2,0,2.2-0.3,3.2-0.8s1.8-1.2,2.4-2.1v-4.7h-5.5c-1.5,0-2.6,0.3-3.3,0.9
			C12.2,418.5,11.9,419.5,11.9,420.9z"/>
		<path class="st3" d="M36.5,398c0,0.9-0.2,1.5-0.7,2c-0.5,0.4-1.1,0.6-1.9,0.6c-1.7,0-2.5-0.9-2.5-2.6c0-1.8,0.8-2.7,2.5-2.7
			c0.8,0,1.4,0.2,1.9,0.7C36.2,396.4,36.5,397.1,36.5,398z M36,427.7h-4.1v-21.5h-2.7v-3.5H36V427.7z M55.1,411.5
			c0-1.8-0.3-3.2-1-4.1s-1.5-1.5-2.7-1.5c-1,0-2,0.3-2.9,0.9s-1.7,1.4-2.3,2.4v18.5H42v-24.9l4.1-0.6v2.9c0.8-0.9,1.7-1.6,2.7-2.1
			s2.1-0.8,3.3-0.8c1.4,0,2.5,0.3,3.5,1c1,0.6,1.7,1.5,2.2,2.7c1.6-2.4,3.8-3.7,6.8-3.7c2.5,0,4.3,0.7,5.6,2.2
			c1.3,1.4,1.9,3.6,1.9,6.5v16.8H68v-16.2c0-1.9-0.3-3.3-0.9-4.2c-0.6-0.9-1.6-1.4-3.1-1.4s-2.7,0.5-3.6,1.4c-0.9,1-1.3,2.2-1.3,3.7
			v16.6H55L55.1,411.5L55.1,411.5z"/>
	</g>
	<g id="_1722786092928">
		<path class="st1" d="M121,402.4v3.3c0.9-1,1.9-1.8,3.1-2.4c1.1-0.6,2.3-0.9,3.6-0.9l0.3,3.8c-1.4,0-2.7,0.3-3.8,0.9
			c-1.2,0.6-2.2,1.5-3,2.5v18.2H117v-24.9L121,402.4L121,402.4z"/>
		<path class="st3" d="M130.1,411.6c0-2.9,0.8-5.2,2.5-6.8c1.7-1.6,3.9-2.5,6.8-2.5s5.1,0.8,6.8,2.5c1.7,1.6,2.5,3.9,2.5,6.8v5.1
			h-14.3v2c0,2,0.4,3.4,1.3,4.4c0.9,1,2.2,1.5,3.8,1.5c1.4,0,2.5-0.3,3.3-0.9s1.3-1.4,1.6-2.5l3.8,1c-0.5,1.8-1.5,3.3-3,4.4
			s-3.4,1.7-5.7,1.7c-2.9,0-5.1-0.8-6.8-2.5c-1.7-1.6-2.5-3.9-2.5-6.8L130.1,411.6L130.1,411.6z M144.4,412c0-2-0.4-3.5-1.3-4.5
			c-0.9-1-2.1-1.5-3.8-1.5s-2.9,0.5-3.8,1.5s-1.3,2.5-1.3,4.5v1.4h10.2L144.4,412L144.4,412z M171,420c0,1.6,0.1,2.9,0.2,3.9
			c0.2,1,0.5,2,1,2.9l-3.5,1.4c-0.5-0.8-0.9-1.7-1.2-2.6c-0.8,0.8-1.8,1.4-3,1.9s-2.4,0.7-3.7,0.7c-2.6,0-4.5-0.6-6-1.8
			c-1.4-1.2-2.1-3-2.1-5.4c0-2.6,0.7-4.4,2.2-5.4c1.5-1.1,3.6-1.6,6.3-1.6h5.7v-2.9c0-1.8-0.4-3.2-1.1-4c-0.8-0.8-2-1.2-3.6-1.2
			c-1.3,0-2.4,0.3-3.3,0.9c-0.8,0.6-1.4,1.4-1.6,2.4l-3.9-1.1c0.4-1.7,1.4-3.1,2.9-4.2s3.5-1.7,5.8-1.7c2.9,0,5.1,0.7,6.6,2.1
			s2.3,3.4,2.2,6.1L171,420L171,420z M156.9,421.1c0,1.3,0.4,2.3,1.2,2.9s1.8,0.9,3.2,0.9c1.2,0,2.2-0.3,3.2-0.8s1.8-1.2,2.4-2.1
			v-4.7h-5.5c-1.5,0-2.6,0.3-3.3,0.9C157.3,418.7,156.9,419.7,156.9,421.1z M194.7,422.3c-0.5,1.8-1.5,3.3-3,4.4s-3.4,1.7-5.7,1.7
			c-2.9,0-5.1-0.8-6.8-2.5c-1.7-1.6-2.5-3.9-2.5-6.8v-7.4c0-2.9,0.8-5.2,2.5-6.8c1.7-1.6,3.9-2.5,6.8-2.5c2.3,0,4.2,0.5,5.8,1.6
			c1.5,1.1,2.5,2.5,3,4.4l-3.9,1.1c-0.5-2.2-2.2-3.4-4.9-3.4c-1.6,0-2.9,0.5-3.8,1.5c-0.9,1-1.3,2.5-1.3,4.5v6.3
			c0,2,0.4,3.5,1.3,4.5c0.9,1,2.1,1.5,3.8,1.5c2.7,0,4.3-1.1,4.9-3.4L194.7,422.3L194.7,422.3z M203.3,395.1v10.1
			c0.9-0.9,1.8-1.5,2.9-2.1c1.1-0.5,2.2-0.8,3.3-0.8c2.7,0,4.6,0.7,5.8,2.1s1.8,3.5,1.8,6.3v17H213v-16.4c0-1.9-0.3-3.2-1-4.1
			c-0.7-0.8-1.8-1.3-3.4-1.3c-1,0-2,0.3-2.9,0.9c-1,0.6-1.8,1.3-2.5,2.2v18.7h-4.1v-32.2L203.3,395.1z"/>
	</g>
</g>
<g id="white-slogan" class="st4">
	<path class="st5" d="M480.3,86.6c-50,18.6-98.6,37.1-150.9,56.7c-24.6-5.6-53.9-4.5-87.3,3.3l0,0c91.8-33.9,168.4-63.3,250.7-93.8"
		/>
	<path class="st6" d="M254.6,193.6c-15.5-6-38.8-3.3-48.8,1.5c-14.8,7.2-19.8,14.5-28.2,32.5c3.4,5.1,6.7,10.1,9.3,15.3
		c13.3,27.6,8.6,36.9,11.6,50C204.3,259.7,222.5,226.6,254.6,193.6L254.6,193.6z"/>
	<path class="st7" d="M61.8,400.3c6.6-2.4,12.1-4.6,18-6.7c-1.8,4.8-3.8,10.9-5.5,15.9C74.1,401.6,69.4,398.5,61.8,400.3z"/>
	<path class="st7" d="M206.6,400.3c6.6-2.4,12.1-4.6,18-6.7c-1.8,4.8-3.8,10.9-5.5,15.9C218.9,401.6,214.2,398.5,206.6,400.3z"/>
	<path class="st7" d="M383.4,400.3c6.6-2.4,12.1-4.6,18-6.7c-1.8,4.8-3.8,10.9-5.5,15.9C395.7,401.6,391,398.5,383.4,400.3z"/>
	<g id="_1722783697008_1_" class="st8">
		<path class="st9" d="M294.4,422.3c-0.5,1.8-1.5,3.3-3,4.4s-3.4,1.7-5.7,1.7c-2.9,0-5.1-0.8-6.8-2.5c-1.7-1.6-2.5-3.9-2.5-6.8v-7.4
			c0-2.9,0.8-5.2,2.5-6.8c1.7-1.6,3.9-2.5,6.8-2.5c2.3,0,4.2,0.5,5.8,1.6c1.5,1.1,2.5,2.5,3,4.4l-3.9,1.1c-0.5-2.2-2.2-3.4-4.9-3.4
			c-1.6,0-2.9,0.5-3.8,1.5s-1.3,2.5-1.3,4.5v6.3c0,2,0.4,3.5,1.3,4.5s2.1,1.5,3.8,1.5c2.7,0,4.3-1.1,4.9-3.4L294.4,422.3
			L294.4,422.3z M303,395.1v10.1c0.9-0.9,1.8-1.5,2.9-2.1c1.1-0.5,2.2-0.8,3.3-0.8c2.7,0,4.6,0.7,5.8,2.1c1.2,1.4,1.8,3.5,1.8,6.3
			v17h-4.1v-16.4c0-1.9-0.3-3.2-1-4.1c-0.7-0.8-1.8-1.3-3.4-1.3c-1,0-2,0.3-2.9,0.9c-1,0.6-1.8,1.3-2.5,2.2v18.7h-4.1v-32.2
			L303,395.1z M327.3,398.2c0,0.9-0.2,1.5-0.7,2c-0.5,0.4-1.1,0.6-1.9,0.6c-1.7,0-2.5-0.9-2.5-2.6c0-1.8,0.8-2.7,2.5-2.7
			c0.8,0,1.4,0.2,1.9,0.7C327,396.5,327.3,397.2,327.3,398.2z M326.8,427.9h-4.1v-21.5H320v-3.5h6.8V427.9z M332.6,411.6
			c0-2.9,0.8-5.2,2.5-6.8c1.7-1.6,3.9-2.5,6.8-2.5s5.1,0.8,6.8,2.5c1.7,1.6,2.5,3.9,2.5,6.8v5.1h-14.3v2c0,2,0.4,3.4,1.3,4.4
			s2.2,1.5,3.8,1.5c1.4,0,2.5-0.3,3.3-0.9s1.3-1.4,1.6-2.5l3.8,1c-0.5,1.8-1.5,3.3-3,4.4s-3.4,1.7-5.7,1.7c-2.9,0-5.1-0.8-6.8-2.5
			c-1.7-1.6-2.5-3.9-2.5-6.8L332.6,411.6L332.6,411.6z M346.9,412c0-2-0.4-3.5-1.3-4.5s-2.1-1.5-3.8-1.5s-2.9,0.5-3.8,1.5
			s-1.3,2.5-1.3,4.5v1.4h10.2L346.9,412L346.9,412z M357.5,402.4l6,20.5l5.8-20.1h4.5l-8.3,25h-4.1l-8.3-24.9L357.5,402.4
			L357.5,402.4z M375.9,411.6c0-2.9,0.8-5.2,2.5-6.8c1.7-1.6,3.9-2.5,6.8-2.5s5.1,0.8,6.8,2.5c1.7,1.6,2.5,3.9,2.5,6.8v5.1H380v2
			c0,2,0.4,3.4,1.3,4.4s2.2,1.5,3.8,1.5c1.4,0,2.5-0.3,3.3-0.9s1.3-1.4,1.6-2.5l3.8,1c-0.5,1.8-1.5,3.3-3,4.4s-3.4,1.7-5.7,1.7
			c-2.9,0-5.1-0.8-6.8-2.5c-1.7-1.6-2.5-3.9-2.5-6.8L375.9,411.6L375.9,411.6z M390.2,412c0-2-0.4-3.5-1.3-4.5s-2.1-1.5-3.8-1.5
			c-1.7,0-2.9,0.5-3.8,1.5S380,410,380,412v1.4h10.2L390.2,412L390.2,412z"/>
		<path class="st1" d="M270.8,420c0,1.6,0.1,2.9,0.2,3.9c0.2,1,0.5,2,1,2.9l-3.5,1.4c-0.5-0.8-0.9-1.7-1.2-2.6
			c-0.8,0.8-1.8,1.4-3,1.9s-2.4,0.7-3.7,0.7c-2.6,0-4.5-0.6-6-1.8c-1.4-1.2-2.1-3-2.1-5.4c0-2.6,0.7-4.4,2.2-5.4
			c1.5-1.1,3.6-1.6,6.3-1.6h5.7v-2.9c0-1.8-0.4-3.2-1.1-4c-0.8-0.8-2-1.2-3.6-1.2c-1.3,0-2.4,0.3-3.3,0.9c-0.8,0.6-1.4,1.4-1.6,2.4
			l-3.9-1.1c0.4-1.7,1.4-3.1,2.9-4.2s3.5-1.7,5.8-1.7c2.9,0,5.1,0.7,6.6,2.1s2.3,3.4,2.2,6.1L270.8,420L270.8,420z M256.7,421.1
			c0,1.3,0.4,2.3,1.2,2.9c0.8,0.6,1.8,0.9,3.2,0.9c1.2,0,2.2-0.3,3.2-0.8s1.8-1.2,2.4-2.1v-4.7h-5.5c-1.5,0-2.6,0.3-3.3,0.9
			C257.1,418.7,256.7,419.7,256.7,421.1z"/>
	</g>
	<path class="st6" d="M256.8,210.4c-2.5,4.4-42.6,33.9-30.3,89.6c1.3,5.9,2.9,10.7,5.1,15.9c1.1,2.5,2,4.5,3.3,6.8
		c1.9,3.6,3.1,4.5,3.4,7.1c2.6,1.6,3.3,3.8,5.1,6l10.4,11.2c16.5,17.3,48.1,26.3,74.3,22.3c18.7-2.8,24.2-8.7,31.9-10.8
		c-1.1-3.5-3.5-6.7-5.2-10.3c-5.5-12.4-3.5-26.1-3.7-39.9l-7.9,7.2c-20.5,17.2-54.1,10.6-67-13.3c-17-31.5,5.8-64.3,35.5-66.8
		c18.8-1.6,32.1,8.2,39.4,17.5c20.9,26.7-1.6,69.2,17.2,96.6c6.8,9.9,18.9,19.7,36.2,20.4c1-16.6,0.2-66.6,0.1-86.8
		c-0.1-68.2-63.7-107.6-119.3-88.2C268.5,201,261.4,208.7,256.8,210.4L256.8,210.4z"/>
	<path class="st6" d="M40.3,210.4C37.8,214.8-2.3,244.3,10,300c1.3,5.9,2.9,10.7,5.1,15.9c1.1,2.5,2,4.5,3.3,6.8
		c1.9,3.6,3.1,4.5,3.4,7.1c2.6,1.6,3.3,3.8,5.1,6L37.3,347c16.5,17.3,48.1,26.3,74.3,22.3c18.7-2.8,24.2-8.7,31.9-10.8
		c-1.1-3.5-3.5-6.7-5.2-10.3c-5.5-12.4-3.5-26.1-3.7-39.9l-7.9,7.2c-20.5,17.2-54.1,10.6-67-13.3c-17-31.5,5.8-64.3,35.5-66.8
		c18.8-1.6,32.1,8.2,39.4,17.5c20.9,26.7-1.6,69.2,17.2,96.6c6.8,9.9,18.9,19.7,36.2,20.4c1-16.6,0.2-66.6,0.1-86.8
		c-0.1-68.2-63.7-107.6-119.3-88.2C52,201,44.9,208.7,40.3,210.4L40.3,210.4z"/>
	<path class="st7" d="M508.2,76.2C483,143,455.6,227.1,431.6,297c-3.2-108.8-67.8-151.7-174.1-127
		C349.3,136.1,425.8,106.7,508.2,76.2"/>
	<g class="st8">
		<path class="st1" d="M25.9,419.9c0,1.6,0.1,2.9,0.2,3.9c0.2,1,0.5,2,1,2.9l-3.5,1.4c-0.5-0.8-0.9-1.7-1.2-2.6
			c-0.8,0.8-1.8,1.4-3,1.9s-2.4,0.7-3.7,0.7c-2.6,0-4.5-0.6-6-1.8c-1.4-1.2-2.1-3-2.1-5.4c0-2.6,0.7-4.4,2.2-5.4
			c1.5-1.1,3.6-1.6,6.3-1.6h5.7V411c0-1.8-0.4-3.2-1.1-4c-0.8-0.8-2-1.2-3.6-1.2c-1.3,0-2.4,0.3-3.3,0.9c-0.8,0.6-1.4,1.4-1.6,2.4
			L8.3,408c0.4-1.7,1.4-3.1,2.9-4.2s3.5-1.7,5.8-1.7c2.9,0,5.1,0.7,6.6,2.1s2.3,3.4,2.2,6.1L25.9,419.9L25.9,419.9z M11.9,420.9
			c0,1.3,0.4,2.3,1.2,2.9s1.8,0.9,3.2,0.9c1.2,0,2.2-0.3,3.2-0.8s1.8-1.2,2.4-2.1v-4.7h-5.5c-1.5,0-2.6,0.3-3.3,0.9
			C12.2,418.5,11.9,419.5,11.9,420.9z"/>
		<path class="st9" d="M36.5,398c0,0.9-0.2,1.5-0.7,2c-0.5,0.4-1.1,0.6-1.9,0.6c-1.7,0-2.5-0.9-2.5-2.6c0-1.8,0.8-2.7,2.5-2.7
			c0.8,0,1.4,0.2,1.9,0.7C36.2,396.4,36.5,397.1,36.5,398z M36,427.7h-4.1v-21.5h-2.7v-3.5H36V427.7z M55.1,411.5
			c0-1.8-0.3-3.2-1-4.1s-1.5-1.5-2.7-1.5c-1,0-2,0.3-2.9,0.9s-1.7,1.4-2.3,2.4v18.5H42v-24.9l4.1-0.6v2.9c0.8-0.9,1.7-1.6,2.7-2.1
			s2.1-0.8,3.3-0.8c1.4,0,2.5,0.3,3.5,1c1,0.6,1.7,1.5,2.2,2.7c1.6-2.4,3.8-3.7,6.8-3.7c2.5,0,4.3,0.7,5.6,2.2
			c1.3,1.4,1.9,3.6,1.9,6.5v16.8H68v-16.2c0-1.9-0.3-3.3-0.9-4.2c-0.6-0.9-1.6-1.4-3.1-1.4s-2.7,0.5-3.6,1.4c-0.9,1-1.3,2.2-1.3,3.7
			v16.6H55L55.1,411.5L55.1,411.5z"/>
	</g>
	<g id="_1722786092928_1_" class="st8">
		<path class="st1" d="M121,402.4v3.3c0.9-1,1.9-1.8,3.1-2.4c1.1-0.6,2.3-0.9,3.6-0.9l0.3,3.8c-1.4,0-2.7,0.3-3.8,0.9
			c-1.2,0.6-2.2,1.5-3,2.5v18.2H117v-24.9L121,402.4L121,402.4z"/>
		<path class="st9" d="M130.1,411.6c0-2.9,0.8-5.2,2.5-6.8c1.7-1.6,3.9-2.5,6.8-2.5s5.1,0.8,6.8,2.5c1.7,1.6,2.5,3.9,2.5,6.8v5.1
			h-14.3v2c0,2,0.4,3.4,1.3,4.4c0.9,1,2.2,1.5,3.8,1.5c1.4,0,2.5-0.3,3.3-0.9s1.3-1.4,1.6-2.5l3.8,1c-0.5,1.8-1.5,3.3-3,4.4
			s-3.4,1.7-5.7,1.7c-2.9,0-5.1-0.8-6.8-2.5c-1.7-1.6-2.5-3.9-2.5-6.8L130.1,411.6L130.1,411.6z M144.4,412c0-2-0.4-3.5-1.3-4.5
			c-0.9-1-2.1-1.5-3.8-1.5s-2.9,0.5-3.8,1.5s-1.3,2.5-1.3,4.5v1.4h10.2L144.4,412L144.4,412z M171,420c0,1.6,0.1,2.9,0.2,3.9
			c0.2,1,0.5,2,1,2.9l-3.5,1.4c-0.5-0.8-0.9-1.7-1.2-2.6c-0.8,0.8-1.8,1.4-3,1.9s-2.4,0.7-3.7,0.7c-2.6,0-4.5-0.6-6-1.8
			c-1.4-1.2-2.1-3-2.1-5.4c0-2.6,0.7-4.4,2.2-5.4c1.5-1.1,3.6-1.6,6.3-1.6h5.7v-2.9c0-1.8-0.4-3.2-1.1-4c-0.8-0.8-2-1.2-3.6-1.2
			c-1.3,0-2.4,0.3-3.3,0.9c-0.8,0.6-1.4,1.4-1.6,2.4l-3.9-1.1c0.4-1.7,1.4-3.1,2.9-4.2s3.5-1.7,5.8-1.7c2.9,0,5.1,0.7,6.6,2.1
			s2.3,3.4,2.2,6.1L171,420L171,420z M156.9,421.1c0,1.3,0.4,2.3,1.2,2.9s1.8,0.9,3.2,0.9c1.2,0,2.2-0.3,3.2-0.8s1.8-1.2,2.4-2.1
			v-4.7h-5.5c-1.5,0-2.6,0.3-3.3,0.9C157.3,418.7,156.9,419.7,156.9,421.1z M194.7,422.3c-0.5,1.8-1.5,3.3-3,4.4s-3.4,1.7-5.7,1.7
			c-2.9,0-5.1-0.8-6.8-2.5c-1.7-1.6-2.5-3.9-2.5-6.8v-7.4c0-2.9,0.8-5.2,2.5-6.8c1.7-1.6,3.9-2.5,6.8-2.5c2.3,0,4.2,0.5,5.8,1.6
			c1.5,1.1,2.5,2.5,3,4.4l-3.9,1.1c-0.5-2.2-2.2-3.4-4.9-3.4c-1.6,0-2.9,0.5-3.8,1.5c-0.9,1-1.3,2.5-1.3,4.5v6.3
			c0,2,0.4,3.5,1.3,4.5c0.9,1,2.1,1.5,3.8,1.5c2.7,0,4.3-1.1,4.9-3.4L194.7,422.3L194.7,422.3z M203.3,395.1v10.1
			c0.9-0.9,1.8-1.5,2.9-2.1c1.1-0.5,2.2-0.8,3.3-0.8c2.7,0,4.6,0.7,5.8,2.1s1.8,3.5,1.8,6.3v17H213v-16.4c0-1.9-0.3-3.2-1-4.1
			c-0.7-0.8-1.8-1.3-3.4-1.3c-1,0-2,0.3-2.9,0.9c-1,0.6-1.8,1.3-2.5,2.2v18.7h-4.1v-32.2L203.3,395.1z"/>
	</g>
</g>
</svg>
